<svg width="37" height="30" viewBox="0 0 37 30" fill="none" xmlns="http://www.w3.org/2000/svg">
<path d="M36.0335 3.89812C34.6974 4.48908 33.2807 4.87719 31.83 5.04962C33.359 4.13512 34.5035 2.69589 35.05 1.00012C33.615 1.85412 32.0417 2.45262 30.402 2.77637C29.3005 1.59788 27.8406 0.816301 26.2491 0.553139C24.6577 0.289977 23.0239 0.559975 21.6017 1.32116C20.1795 2.08234 19.0486 3.29206 18.3849 4.76225C17.7212 6.23244 17.5618 7.88073 17.9315 9.45087C15.0214 9.30501 12.1746 8.54878 9.57572 7.23128C6.97689 5.91377 4.68419 4.06445 2.84647 1.80337C2.19598 2.92065 1.85414 4.19076 1.85597 5.48362C1.85597 8.02112 3.14747 10.2629 5.11097 11.5754C3.94899 11.5388 2.81258 11.225 1.79647 10.6601V10.7511C1.79682 12.4411 2.38162 14.0789 3.4517 15.387C4.52179 16.695 6.01131 17.5927 7.66772 17.9279C6.58905 18.2202 5.45801 18.2633 4.36022 18.0539C4.82724 19.5085 5.73748 20.7807 6.96351 21.6923C8.18953 22.6039 9.66994 23.1093 11.1975 23.1376C9.67931 24.3299 7.94103 25.2113 6.08201 25.7314C4.22299 26.2515 2.27969 26.4001 0.36322 26.1686C3.70869 28.3201 7.60314 29.4623 11.5807 29.4586C25.0435 29.4586 32.4057 18.3059 32.4057 8.63362C32.4057 8.31862 32.397 8.00012 32.383 7.68862C33.816 6.65291 35.0528 5.3699 36.0352 3.89987L36.0335 3.89812Z" fill="white"/>
</svg>
